<svg viewBox="0 0 133 160" fill="none" xmlns="http://www.w3.org/2000/svg"><path d="M124.522 21.1464C109.68 -0.0944876 80.3668 -6.39036 59.1719 7.11223L21.9486 30.834C11.7809 37.2301 4.77751 47.6124 2.65583 59.4349C0.880193 69.2837 2.44087 79.4434 7.09077 88.3054C3.90454 93.1383 1.73139 98.5669 0.702661 104.263C-1.43954 116.313 1.36266 128.717 8.47665 138.676C23.3219 159.919 52.6352 166.212 73.8268 152.71L111.05 128.988C121.219 122.593 128.222 112.21 130.343 100.388C132.118 90.5388 130.559 80.3793 125.911 71.5163C129.097 66.6836 131.269 61.2552 132.297 55.5592C134.44 43.5096 131.638 31.1047 124.523 21.1464" fill="#159497"/><path d="M55.532 140.697C43.5301 143.817 30.8558 139.12 23.7875 128.931C19.5072 122.941 17.8212 115.479 19.11 108.23C19.326 107.052 19.6233 105.89 19.9998 104.753L20.701 102.616L22.6086 104.017C27.0141 107.253 31.94 109.714 37.1739 111.293L38.5577 111.713L38.4303 113.094C38.2612 115.059 38.7932 117.02 39.932 118.63C42.0592 121.699 45.8752 123.115 49.4898 122.177C50.299 121.96 51.0703 121.622 51.7768 121.172L89.0121 97.4456C90.8543 96.2857 92.1239 94.4048 92.5105 92.2627C92.8964 90.078 92.3885 87.8298 91.1008 86.0232C88.9724 82.9535 85.1554 81.5367 81.5394 82.4741C80.7312 82.6903 79.9609 83.029 79.2553 83.4784L65.0466 92.5351C62.7102 94.0206 60.1604 95.1402 57.4856 95.8552C45.4838 98.9754 32.8097 94.2778 25.7415 84.0895C21.4611 78.0992 19.775 70.6371 21.064 63.3886C22.34 56.2773 26.5532 50.0325 32.67 46.1865L69.902 22.4584C72.2394 20.9705 74.791 19.8495 77.468 19.1344C89.4698 16.0142 102.144 20.7117 109.212 30.8999C113.492 36.8903 115.178 44.3524 113.889 51.6009C113.672 52.7788 113.375 53.9404 113 55.0777L112.298 57.2156L110.392 55.8168C105.987 52.5782 101.06 50.1161 95.8255 48.537L94.4417 48.117L94.5692 46.736C94.7368 44.7715 94.2049 42.811 93.0674 41.2005C90.9402 38.1316 87.1242 36.7153 83.5097 37.6534C82.7004 37.8697 81.9291 38.2086 81.2226 38.6585L43.9873 62.3856C42.1454 63.5445 40.8765 65.4253 40.4916 67.5671C40.1033 69.7517 40.6104 72.0006 41.8986 73.8073C44.0271 76.8768 47.844 78.2936 51.4601 77.3564C52.2691 77.1397 53.0403 76.8007 53.747 76.3513L67.9538 67.298C70.2892 65.8106 72.8389 64.69 75.514 63.9753C87.5158 60.855 100.19 65.5526 107.258 75.741C111.538 81.7313 113.225 89.1933 111.936 96.4418C110.659 103.554 106.446 109.799 100.33 113.647L63.0974 137.373C60.76 138.861 58.2084 139.982 55.5314 140.697" fill="white"/></svg>