<svg xmlns="http://www.w3.org/2000/svg" style="isolation:isolate" viewBox="0 0 19.9 24" width="19.9pt" height="32"><defs><clipPath id="a"><path d="M0 0h19.9v24H0z"/></clipPath></defs><g clip-path="url(#a)"><path fill="#FFF" d="M.997 9.324L13.657.67l4.748 6.944-12.66 8.655z"/><path fill="#FFF" d="M1.254 16.269l12.66-8.655 4.747 6.944-12.66 8.655z"/><path d="M18.675 3.16a7.3 7.3 0 00-9.8-2.1l-5.6 3.56a6.368 6.368 0 00-2.89 4.3 6.664 6.664 0 00.67 4.33 6.16 6.16 0 00-.95 2.4 6.848 6.848 0 001.16 5.16 7.33 7.33 0 009.8 2.12l5.6-3.56a6.356 6.356 0 002.88-4.3 6.65 6.65 0 00-.67-4.32 6.787 6.787 0 00-.2-7.59zM8.315 21.12a4.43 4.43 0 01-4.76-1.77c-.65-.9-.89-2.01-.7-3.11l.11-.53.1-.33.3.2c.66.5 1.4.86 2.19 1.1l.2.07-.02.2c-.02.28.06.59.22.83.33.47.9.7 1.45.55.12-.04.24-.08.34-.14l5.58-3.56c.28-.18.46-.45.53-.77.06-.33-.02-.67-.2-.94-.33-.46-.9-.67-1.45-.53-.12.04-.25.09-.35.15l-2.11 1.34a4.43 4.43 0 01-5.9-1.28 4.103 4.103 0 01-.7-3.11 3.851 3.851 0 011.77-2.6l5.57-3.56c.35-.22.73-.38 1.14-.5 1.8-.47 3.7.24 4.76 1.76a4.115 4.115 0 01.57 3.64l-.1.33-.29-.2a7.432 7.432 0 00-2.2-1.1l-.2-.06.02-.2c.02-.29-.06-.6-.22-.84-.33-.47-.9-.67-1.45-.53-.12.04-.24.08-.34.14l-5.59 3.59c-.28.19-.46.45-.52.78-.06.32.02.67.2.93.32.47.9.67 1.44.53.13-.04.25-.08.35-.14l2.13-1.36c.35-.23.74-.4 1.14-.51 1.81-.47 3.7.24 4.76 1.77.65.9.9 2.01.72 3.1a3.847 3.847 0 01-1.75 2.6l-5.58 3.55c-.362.22-.752.391-1.16.51z" fill="#159794"/></g></svg>