<svg role="img" viewBox="0 0 24 24"><title>Posts icon</title><path d="M22.8973 0.00415039H1.1029C0.500153 0.00415039 0.0131836 0.387055 0.0131836 0.861V23.1391C0.0131836 23.613 0.500153 23.9959 1.1029 23.9959H22.8973C23.5001 23.9959 23.9871 23.613 23.9871 23.1391V0.861C23.9871 0.387055 23.5001 0.00415039 22.8973 0.00415039ZM14.0433 1.93206H17.3125V7.55246L15.729 6.64473L14.0433 7.59262V1.93206ZM21.5352 22.068H2.46506V1.93206H12.0001V9.88202C12.0001 9.97038 12.0342 10.0587 12.1023 10.131C12.1436 10.177 12.1961 10.216 12.2568 10.2459C12.3175 10.2758 12.3851 10.296 12.4557 10.3052C12.5263 10.3144 12.5986 10.3125 12.6682 10.2996C12.7379 10.2867 12.8037 10.2631 12.8617 10.2301L15.7154 8.6262L18.4874 10.2167C18.5793 10.2703 18.6917 10.2997 18.8075 10.2997C19.1071 10.2997 19.3523 10.1069 19.3523 9.87131V1.93206H21.5318V22.068H21.5352Z" /></svg>