<svg role="img" viewBox="0 0 24 24"><title>Projects icon</title><path d="M16.8961 15.9196C16.8961 15.9196 20.1589 12.6363 21.2743 11.5162C24.7749 7.99375 23.0241 0.946553 23.0241 0.946553C23.0241 0.946553 16.0206 -0.815247 12.5201 2.70835C9.90291 5.34185 8.15891 7.1554 8.15891 7.1554C8.15891 7.1554 3.76691 6.2308 1.14062 8.8735L15.1463 22.9668C17.7726 20.3241 16.8961 15.9196 16.8961 15.9196V15.9196ZM15.1795 5.5868C15.3916 5.37303 15.6435 5.20343 15.9208 5.08772C16.198 4.972 16.4953 4.91244 16.7955 4.91244C17.0957 4.91244 17.3929 4.972 17.6702 5.08772C17.9475 5.20343 18.1994 5.37303 18.4115 5.5868C18.7312 5.90844 18.949 6.31826 19.0372 6.76443C19.1255 7.21061 19.0803 7.6731 18.9073 8.09341C18.7343 8.51372 18.4413 8.87297 18.0654 9.12573C17.6895 9.37849 17.2476 9.5134 16.7955 9.5134C16.3434 9.5134 15.9014 9.37849 15.5255 9.12573C15.1496 8.87297 14.8567 8.51372 14.6837 8.09341C14.5107 7.6731 14.4655 7.21061 14.5537 6.76443C14.642 6.31826 14.8598 5.90844 15.1795 5.5868V5.5868ZM2.25034 21.8145C2.25034 21.8145 5.67891 21.8145 7.96462 19.5145L4.53605 16.0645C2.25034 17.2145 2.25034 21.8145 2.25034 21.8145V21.8145Z" /></svg>