<svg xmlns="http://www.w3.org/2000/svg" style="isolation:isolate" viewBox="0 0 19.9 19.9" width="19.9pt" height="19.9pt"><defs><clipPath id="a"><path d="M0 0h19.9v19.9H0z"/></clipPath></defs><g clip-path="url(#a)"><path fill="none" d="M0 0h19.9v19.9H0z"/><path d="M5.23 9h13.1v9.4H5.23z"/><path d="M0 0h19.9v19.9H0V0zm18.27 15.154c-.145-.908-.736-1.671-2.49-2.382-.61-.286-1.289-.485-1.49-.946-.076-.273-.087-.422-.038-.584.124-.536.758-.697 1.256-.547.323.099.622.348.809.746.858-.561.858-.561 1.455-.933-.224-.348-.335-.498-.486-.647-.522-.584-1.218-.883-2.349-.857l-.585.074c-.56.137-1.094.435-1.418.833-.945 1.07-.672 2.936.472 3.707 1.132.846 2.787 1.032 2.998 1.829.199.97-.721 1.281-1.63 1.169-.672-.15-1.045-.486-1.455-1.108l-1.517.871c.174.398.373.572.671.92 1.443 1.456 5.05 1.381 5.697-.833.024-.074.237-.529.1-1.312zm-7.449-6.007H8.957c0 1.606-.007 3.203-.007 4.813 0 1.021.052 1.959-.114 2.248-.274.571-.979.498-1.299.398-.328-.163-.495-.387-.688-.709-.052-.087-.091-.163-.105-.163l-1.514.933c.253.522.622.972 1.098 1.258.709.423 1.662.56 2.659.336.65-.188 1.209-.573 1.502-1.17.423-.771.333-1.717.329-2.775.01-1.703 0-3.407 0-5.123l.003-.046z" fill="#F7DF1E"/></g></svg>